# xmcd
#
# Track frame offsets:
#	182
#	13972
#	28702
#	47912
#	63190
#	76082
#	85997
#	103487
#	117327
#	132330
#
# Disc length: 2006 seconds
#
# Revision: 0
# Processed by: cddbd v1.5.2PL0 Copyright (c) Steve Scherf et al.
# Submitted via: audiograbber 1.83.01
#
DISCID=8507d40a
DTITLE=Various Artist - Christmas In The Country
DYEAR=1988
DGENRE=Holidays
TTITLE0=George Strait - White Christmas
TTITLE1=Reba McEntire - I'll Be Home For Christmas
TTITLE2=The Oak Ridge Boys - There's A New Kid In Town
TTITLE3=Lee Greenwood - Let It Snow, Let It Snow, Let It Snow
TTITLE4=Barbara Mandrell - Christmas At Our House
TTITLE5=George Strait - Santa Claus Is Coming To Town
TTITLE6=Reba McEntire - O Holy Night
TTITLE7=The Oak Ridge Boys - That's What I Like About Christmas
TTITLE8=Lee Greenwood - Christmas To Christmas (Loving You)
TTITLE9=Barbara Mandrell - From Our House To Your House
EXTD=
EXTT0=
EXTT1=
EXTT2=
EXTT3=
EXTT4=
EXTT5=
EXTT6=
EXTT7=
EXTT8=
EXTT9=
PLAYORDER=
